<svg width="338" height="338" viewBox="0 0 338 338" fill="none" xmlns="http://www.w3.org/2000/svg">
<path d="M87.3167 232.375C99.8898 232.375 112.129 233.842 124.033 236.776C135.937 239.71 147.64 244.111 159.142 249.979V99.6396C148.579 92.5979 137.122 87.1406 124.772 83.2677C112.421 79.3948 99.936 77.4582 87.3167 77.4582C78.3972 77.4582 69.6537 78.5732 61.0863 80.8031C52.5191 83.033 43.893 85.791 35.2083 89.0771V241.881C42.4847 238.595 50.7587 236.189 60.0302 234.664C69.3017 233.138 78.3972 232.375 87.3167 232.375ZM180.267 249.979C192.003 244.111 203.504 239.71 214.771 236.776C226.037 233.842 238.008 232.375 250.683 232.375C259.603 232.375 268.816 233.079 278.322 234.487C287.828 235.896 295.985 237.774 302.792 240.121V89.0771C294.811 85.0868 286.382 82.1528 277.504 80.275C268.626 78.3972 259.686 77.4582 250.683 77.4582C238.008 77.4582 225.744 79.3948 213.891 83.2677C202.037 87.1406 190.829 92.5979 180.267 99.6396V249.979ZM169.704 281.667C157.733 272.747 144.706 265.882 130.623 261.07C116.54 256.258 102.104 253.852 87.3167 253.852C78.7406 253.852 70.3178 254.908 62.0483 257.021C53.7786 259.133 45.5361 261.715 37.3208 264.767C31.8987 267.349 26.6703 266.997 21.6355 263.71C16.6007 260.424 14.0833 255.73 14.0833 249.627V86.6125C14.0833 83.0916 14.9048 79.8641 16.5479 76.9301C18.191 73.9961 20.6555 71.7075 23.9416 70.0645C33.8 65.37 44.0568 61.908 54.712 59.6781C65.367 57.4482 76.2352 56.3333 87.3167 56.3333C102.104 56.3333 116.481 58.3284 130.447 62.3186C144.413 66.3089 157.499 72.4117 169.704 80.627C181.675 72.4117 194.526 66.3089 208.257 62.3186C221.989 58.3284 236.131 56.3333 250.683 56.3333C261.684 56.3333 272.474 57.4482 283.052 59.6781C293.63 61.908 303.848 65.37 313.706 70.0645C316.992 71.7075 319.516 73.9961 321.276 76.9301C323.036 79.8641 323.917 83.0916 323.917 86.6125V249.627C323.917 256.174 321.276 261.156 315.995 264.572C310.714 267.988 305.491 268.053 300.327 264.767C292.347 261.481 284.221 258.84 275.952 256.845C267.682 254.85 259.259 253.852 250.683 253.852C235.896 253.852 221.695 256.317 208.081 261.246C194.467 266.175 181.675 272.982 169.704 281.667Z" fill="#00A3FF"/>
<path d="M114.382 154.236C113.899 152.446 113.189 150.869 112.251 149.506C111.314 148.114 110.163 146.935 108.799 145.969C107.436 145.003 105.873 144.278 104.112 143.795C102.35 143.284 100.419 143.028 98.3164 143.028C94.0835 143.028 90.4187 144.051 87.3221 146.097C84.2539 148.142 81.8817 151.125 80.2056 155.045C78.5295 158.937 77.6914 163.668 77.6914 169.236C77.6914 174.832 78.5011 179.605 80.1204 183.554C81.7397 187.503 84.0835 190.514 87.1516 192.588C90.2198 194.662 93.9414 195.699 98.3164 195.699C102.18 195.699 105.447 195.074 108.118 193.824C110.816 192.545 112.862 190.741 114.254 188.412C115.646 186.082 116.342 183.341 116.342 180.188L120.262 180.656H99.0408V165.273H136.669V176.821C136.669 184.634 135.007 191.324 131.683 196.892C128.387 202.46 123.842 206.736 118.047 209.719C112.279 212.702 105.646 214.193 98.146 214.193C89.8221 214.193 82.5067 212.389 76.1999 208.781C69.8931 205.173 64.9783 200.031 61.4556 193.355C57.9329 186.651 56.1715 178.696 56.1715 169.491C56.1715 162.332 57.2369 155.983 59.3675 150.443C61.4982 144.875 64.467 140.159 68.2738 136.295C72.109 132.432 76.5408 129.506 81.5692 127.517C86.6261 125.528 92.0664 124.534 97.8903 124.534C102.947 124.534 107.649 125.259 111.995 126.707C116.37 128.156 120.234 130.202 123.586 132.844C126.967 135.486 129.708 138.625 131.811 142.261C133.913 145.898 135.22 149.889 135.731 154.236H114.382Z" fill="#00A3FF"/>
<path d="M254.669 151.892C254.385 148.767 253.121 146.338 250.876 144.605C248.661 142.844 245.493 141.963 241.374 141.963C238.646 141.963 236.374 142.318 234.555 143.028C232.737 143.739 231.374 144.719 230.464 145.969C229.555 147.19 229.087 148.597 229.058 150.188C229.001 151.494 229.257 152.645 229.825 153.639C230.422 154.634 231.274 155.514 232.382 156.281C233.518 157.02 234.882 157.673 236.473 158.241C238.064 158.81 239.854 159.307 241.842 159.733L249.342 161.438C253.661 162.375 257.467 163.625 260.763 165.188C264.087 166.75 266.871 168.611 269.115 170.77C271.388 172.929 273.107 175.415 274.271 178.227C275.436 181.04 276.033 184.193 276.061 187.688C276.033 193.199 274.641 197.929 271.885 201.878C269.129 205.827 265.166 208.852 259.996 210.955C254.854 213.057 248.646 214.108 241.374 214.108C234.072 214.108 227.709 213.014 222.283 210.827C216.857 208.639 212.638 205.315 209.626 200.855C206.615 196.395 205.067 190.756 204.982 183.938H225.18C225.351 186.75 226.104 189.094 227.439 190.969C228.774 192.844 230.607 194.264 232.936 195.23C235.294 196.196 238.021 196.679 241.118 196.679C243.959 196.679 246.374 196.295 248.362 195.528C250.379 194.761 251.928 193.696 253.007 192.332C254.087 190.969 254.641 189.406 254.669 187.645C254.641 185.997 254.129 184.591 253.135 183.426C252.141 182.233 250.607 181.21 248.533 180.358C246.487 179.477 243.874 178.668 240.692 177.929L231.572 175.798C224.016 174.065 218.064 171.267 213.717 167.403C209.371 163.511 207.212 158.256 207.24 151.636C207.212 146.239 208.661 141.509 211.587 137.446C214.513 133.384 218.561 130.216 223.732 127.943C228.902 125.67 234.797 124.534 241.416 124.534C248.178 124.534 254.044 125.685 259.016 127.986C264.016 130.259 267.893 133.455 270.649 137.574C273.405 141.693 274.811 146.466 274.868 151.892H254.669Z" fill="#00A3FF"/>
</svg>
